{"title":"The Knights of Prosperity - Complete Season","uid":10015620,"size":2380772214,"categoryP":"video","categoryS":"tv_shows","magnet":"?xt=urn:btih:7085a8f0b915c17a46331005e7f214a31230ae05&amp;dn=The+Knights+of+Prosperity+-+Complete+Season&amp;tr=udp%3A%2F%2Ftracker.openbittorrent.com%3A80&amp;tr=udp%3A%2F%2Fopen.demonii.com%3A1337&amp;tr=udp%3A%2F%2Ftracker.coppersurfer.tk%3A6969&amp;tr=udp%3A%2F%2Fexodus.desync.com%3A6969","seeders":1,"leechers":1,"uploader":"ICIPH3R","files":13,"time":1398143432,"description":"The Knights of Prosperity Complete Season (All Episodes)\n\nVideo\nFormat : MPEG-4 Visual\nFormat profile : Advanced Simple@L5\nFormat settings, BVOP : Yes\nFormat settings, QPel : No\nFormat settings, GMC : No warppoints\nFormat settings, Matrix : Default (H.263)\nCodec ID : XVID\nCodec ID/Hint : XviD\nBit rate : 1 032 Kbps\nWidth : 608 pixels\nHeight : 336 pixels\nDisplay aspect ratio : 16:9\nFrame rate : 23.976 fps\nColor space : YUV\nChroma subsampling : 4:2:0\nBit depth : 8 bits\nScan type : Progressive\nCompression mode : Lossy\nBits/(Pixel*Frame) : 0.211\nStream size : 154 MiB (88%)\nWriting library : XviD 1.2.0.dev42 (UTC 2005-12)\n\nAudio\nFormat : MPEG Audio\nFormat version : Version 1\nFormat profile : Layer 3\nMode : Joint stereo\nMode extension : MS Stereo\nCodec ID : 55\nCodec ID/Hint : MP3\nBit rate mode : Variable\nBit rate : 128 Kbps\nChannel count : 2 channels\nSampling rate : 48.0 KHz\nCompression mode : Lossy\nStream size : 19.6 MiB (11%)\nAlignment : Aligned on interleaves\nInterleave, duration : 24 ms (0.58 video frame)\nWriting library : LAME3.90.\nEncoding settings : -m j -V 4 -q 2 -lowpass 17.6 --abr 128","torrent":{"xt":"urn:btih:7085a8f0b915c17a46331005e7f214a31230ae05","amp;dn":"The+Knights+of+Prosperity+-+Complete+Season","amp;tr":["udp%3A%2F%2Ftracker.openbittorrent.com%3A80","udp%3A%2F%2Fopen.demonii.com%3A1337","udp%3A%2F%2Ftracker.coppersurfer.tk%3A6969","udp%3A%2F%2Fexodus.desync.com%3A6969"],"infoHash":"7085a8f0b915c17a46331005e7f214a31230ae05","infoHashBuffer":{"type":"Buffer","data":[112,133,168,240,185,21,193,122,70,51,16,5,231,242,20,163,18,48,174,5]},"announce":[],"urlList":[]}}